<svg xmlns="http://www.w3.org/2000/svg" xmlns:xlink="http://www.w3.org/1999/xlink" xmlns:lucid="lucid" width="1512.17" height="965.27"><g transform="translate(-1456.4519709530953 1290.734722308815)" lucid:page-tab-id="0_0"><path d="M2565.53-1264.23a6 6 0 0 1 6-6h370.6a6 6 0 0 1 6 6v284a6 6 0 0 1-6 6h-370.6a6 6 0 0 1-6-6z" fill="#fff"/><path d="M2565.53-1264.23a6 6 0 0 1 6-6h370.6a6 6 0 0 1 6 6v284a6 6 0 0 1-6 6h-370.6a6 6 0 0 1-6-6zM2565.53-1230.23h382.6M2609.53-1230.23v256M2748.43-1230.23v256" stroke="#3a414a" fill="none"/><use xlink:href="#a" transform="matrix(1,0,0,1,2575.525424927343,-1270.234722308815) translate(140.05 23.6)"/><use xlink:href="#b" transform="matrix(1,0,0,1,2570.525424927343,-1227.734722308815) translate(5 17.1)"/><use xlink:href="#c" transform="matrix(1,0,0,1,2614.525424927343,-1227.734722308815) translate(0 17.1)"/><use xlink:href="#d" transform="matrix(1,0,0,1,2753.425424927343,-1227.734722308815) translate(0 17.1)"/><use xlink:href="#e" transform="matrix(1,0,0,1,2614.525424927343,-1195.734722308815) translate(0 17.1)"/><use xlink:href="#f" transform="matrix(1,0,0,1,2753.425424927343,-1195.734722308815) translate(0 17.1)"/><use xlink:href="#g" transform="matrix(1,0,0,1,2753.425424927343,-1195.734722308815) translate(79.9 17.1)"/><use xlink:href="#h" transform="matrix(1,0,0,1,2614.525424927343,-1163.734722308815) translate(0 17.1)"/><use xlink:href="#f" transform="matrix(1,0,0,1,2753.425424927343,-1163.734722308815) translate(0 17.1)"/><use xlink:href="#g" transform="matrix(1,0,0,1,2753.425424927343,-1163.734722308815) translate(79.9 17.1)"/><use xlink:href="#i" transform="matrix(1,0,0,1,2570.525424927343,-1131.734722308815) translate(5 17.1)"/><use xlink:href="#j" transform="matrix(1,0,0,1,2614.525424927343,-1131.734722308815) translate(0 17.1)"/><use xlink:href="#f" transform="matrix(1,0,0,1,2753.425424927343,-1131.734722308815) translate(0 17.1)"/><use xlink:href="#k" transform="matrix(1,0,0,1,2753.425424927343,-1131.734722308815) translate(79.9 17.1)"/><use xlink:href="#l" transform="matrix(1,0,0,1,2614.525424927343,-1099.734722308815) translate(0 17.1)"/><use xlink:href="#f" transform="matrix(1,0,0,1,2753.425424927343,-1099.734722308815) translate(0 17.1)"/><use xlink:href="#k" transform="matrix(1,0,0,1,2753.425424927343,-1099.734722308815) translate(79.9 17.1)"/><use xlink:href="#m" transform="matrix(1,0,0,1,2614.525424927343,-1067.734722308815) translate(0 17.1)"/><use xlink:href="#f" transform="matrix(1,0,0,1,2753.425424927343,-1067.734722308815) translate(0 17.1)"/><use xlink:href="#g" transform="matrix(1,0,0,1,2753.425424927343,-1067.734722308815) translate(79.9 17.1)"/><use xlink:href="#n" transform="matrix(1,0,0,1,2614.525424927343,-1035.734722308815) translate(0 17.1)"/><use xlink:href="#f" transform="matrix(1,0,0,1,2753.425424927343,-1035.734722308815) translate(0 17.1)"/><use xlink:href="#g" transform="matrix(1,0,0,1,2753.425424927343,-1035.734722308815) translate(79.9 17.1)"/><use xlink:href="#o" transform="matrix(1,0,0,1,2614.525424927343,-1003.734722308815) translate(0 17.1)"/><use xlink:href="#f" transform="matrix(1,0,0,1,2753.425424927343,-1003.734722308815) translate(0 17.1)"/><use xlink:href="#p" transform="matrix(1,0,0,1,2753.425424927343,-1003.734722308815) translate(79.9 17.1)"/><path d="M1587.2-1114.22a6 6 0 0 1 6-6h252.64a6 6 0 0 1 6 6v156a6 6 0 0 1-6 6H1593.2a6 6 0 0 1-6-6z" fill="#fff"/><path d="M1587.2-1114.22a6 6 0 0 1 6-6h252.64a6 6 0 0 1 6 6v156a6 6 0 0 1-6 6H1593.2a6 6 0 0 1-6-6zM1587.2-1080.22h264.64M1659.14-1080.22v128M1776.94-1080.22v128" stroke="#3a414a" fill="none"/><use xlink:href="#q" transform="matrix(1,0,0,1,1597.1939126995899,-1120.2164397811284) translate(81.07499999999999 23.6)"/><use xlink:href="#b" transform="matrix(1,0,0,1,1592.1939126995899,-1077.7164397811284) translate(19 17.1)"/><use xlink:href="#r" transform="matrix(1,0,0,1,1664.14391269959,-1077.7164397811284) translate(0 17.1)"/><use xlink:href="#d" transform="matrix(1,0,0,1,1781.9439126995899,-1077.7164397811284) translate(0 17.1)"/><use xlink:href="#s" transform="matrix(1,0,0,1,1592.1939126995899,-1045.7164397811284) translate(5.024999999999999 17.1)"/><use xlink:href="#t" transform="matrix(1,0,0,1,1664.14391269959,-1045.7164397811284) translate(0 17.1)"/><use xlink:href="#d" transform="matrix(1,0,0,1,1781.9439126995899,-1045.7164397811284) translate(0 17.1)"/><use xlink:href="#s" transform="matrix(1,0,0,1,1592.1939126995899,-1013.7164397811284) translate(5.024999999999999 17.1)"/><use xlink:href="#u" transform="matrix(1,0,0,1,1664.14391269959,-1013.7164397811284) translate(0 17.1)"/><use xlink:href="#d" transform="matrix(1,0,0,1,1781.9439126995899,-1013.7164397811284) translate(0 17.1)"/><use xlink:href="#v" transform="matrix(1,0,0,1,1664.14391269959,-981.7164397811284) translate(0 17.1)"/><use xlink:href="#d" transform="matrix(1,0,0,1,1781.9439126995899,-981.7164397811284) translate(0 17.1)"/><path d="M1498.95-571.97a6 6 0 0 1 6-6h379.6a6 6 0 0 1 6 6v220a6 6 0 0 1-6 6h-379.6a6 6 0 0 1-6-6z" fill="#fff"/><path d="M1498.95-571.97a6 6 0 0 1 6-6h379.6a6 6 0 0 1 6 6v220a6 6 0 0 1-6 6h-379.6a6 6 0 0 1-6-6zM1498.95-537.97h391.6M1542.95-537.97v192M1690.85-537.97v192" stroke="#3a414a" fill="none"/><use xlink:href="#w" transform="matrix(1,0,0,1,1508.9519482954638,-577.967204657034) translate(151.525 23.6)"/><use xlink:href="#b" transform="matrix(1,0,0,1,1503.9519482954638,-535.467204657034) translate(5 17.1)"/><use xlink:href="#u" transform="matrix(1,0,0,1,1547.9519482954638,-535.467204657034) translate(0 17.1)"/><use xlink:href="#d" transform="matrix(1,0,0,1,1695.851948295464,-535.467204657034) translate(0 17.1)"/><use xlink:href="#x" transform="matrix(1,0,0,1,1503.9519482954638,-503.467204657034) translate(5.524999999999999 17.1)"/><use xlink:href="#y" transform="matrix(1,0,0,1,1547.9519482954638,-503.467204657034) translate(0 17.1)"/><use xlink:href="#d" transform="matrix(1,0,0,1,1695.851948295464,-503.467204657034) translate(0 17.1)"/><use xlink:href="#z" transform="matrix(1,0,0,1,1547.9519482954638,-471.467204657034) translate(0 17.1)"/><use xlink:href="#f" transform="matrix(1,0,0,1,1695.851948295464,-471.467204657034) translate(0 17.1)"/><use xlink:href="#k" transform="matrix(1,0,0,1,1695.851948295464,-471.467204657034) translate(79.9 17.1)"/><use xlink:href="#A" transform="matrix(1,0,0,1,1547.9519482954638,-439.467204657034) translate(0 17.1)"/><use xlink:href="#B" transform="matrix(1,0,0,1,1695.851948295464,-439.467204657034) translate(0 17.1)"/><use xlink:href="#C" transform="matrix(1,0,0,1,1547.9519482954638,-407.467204657034) translate(0 17.1)"/><use xlink:href="#D" transform="matrix(1,0,0,1,1695.851948295464,-407.467204657034) translate(0 17.1)"/><use xlink:href="#i" transform="matrix(1,0,0,1,1503.9519482954638,-375.467204657034) translate(5 17.1)"/><use xlink:href="#E" transform="matrix(1,0,0,1,1547.9519482954638,-375.467204657034) translate(0 17.1)"/><use xlink:href="#f" transform="matrix(1,0,0,1,1695.851948295464,-375.467204657034) translate(0 17.1)"/><use xlink:href="#F" transform="matrix(1,0,0,1,1695.851948295464,-375.467204657034) translate(79.9 17.1)"/><path d="M1478.45-522.12h-14a6 6 0 0 1-6-6v-465.96a6 6 0 0 1 6-6h102.83" stroke="#3a414a" fill="none"/><path d="M1478.45-532.12v20M1498.45-522.12h-20" stroke="#3a414a" fill="#fff"/><path d="M1586.47-990.08l-20-10 20-10" stroke="#3a414a" fill="#fff" fill-opacity="0"/><path d="M1586.47-1000.08h-20" stroke="#3a414a" fill="#fff"/><path d="M1573.55-798.95a6 6 0 0 1 6-6h369.6a6 6 0 0 1 6 6v92a6 6 0 0 1-6 6h-369.6a6 6 0 0 1-6-6z" fill="#fff"/><path d="M1573.55-798.95a6 6 0 0 1 6-6h369.6a6 6 0 0 1 6 6v92a6 6 0 0 1-6 6h-369.6a6 6 0 0 1-6-6zM1573.55-764.95h381.6M1617.55-764.95v64M1765.45-764.95v64" stroke="#3a414a" fill="none"/><use xlink:href="#G" transform="matrix(1,0,0,1,1583.5478903045405,-804.9457345118648) translate(124.525 23.6)"/><use xlink:href="#b" transform="matrix(1,0,0,1,1578.5478903045405,-762.4457345118648) translate(5 17.1)"/><use xlink:href="#y" transform="matrix(1,0,0,1,1622.5478903045405,-762.4457345118648) translate(0 17.1)"/><use xlink:href="#d" transform="matrix(1,0,0,1,1770.4478903045406,-762.4457345118648) translate(0 17.1)"/><use xlink:href="#i" transform="matrix(1,0,0,1,1578.5478903045405,-730.4457345118648) translate(5 17.1)"/><use xlink:href="#H" transform="matrix(1,0,0,1,1622.5478903045405,-730.4457345118648) translate(0 17.1)"/><use xlink:href="#f" transform="matrix(1,0,0,1,1770.4478903045406,-730.4457345118648) translate(0 17.1)"/><use xlink:href="#g" transform="matrix(1,0,0,1,1770.4478903045406,-730.4457345118648) translate(79.9 17.1)"/><path d="M1553.05-748.93h-14a6 6 0 0 0-6 6v97.47a6 6 0 0 0 6 6h386a6 6 0 0 1 6 6v137.42a6 6 0 0 1-6 6h-14.6" stroke="#3a414a" fill="none"/><path d="M1553.05-758.93v20M1573.05-748.93h-20" stroke="#3a414a" fill="#fff"/><path d="M1891.28-500.04l20 10-20 10" stroke="#3a414a" fill="#fff" fill-opacity="0"/><path d="M1891.28-490.04h20" stroke="#3a414a" fill="#fff"/><path d="M2538.63-604.2a6 6 0 0 1 6-6h397.5a6 6 0 0 1 6 6v124a6 6 0 0 1-6 6h-397.5a6 6 0 0 1-6-6z" fill="#fff"/><path d="M2538.63-604.2a6 6 0 0 1 6-6h397.5a6 6 0 0 1 6 6v124a6 6 0 0 1-6 6h-397.5a6 6 0 0 1-6-6zM2538.63-570.2h409.5M2582.63-570.2v96M2700.47-570.2v96" stroke="#3a414a" fill="none"/><use xlink:href="#I" transform="matrix(1,0,0,1,2548.625424927343,-610.2031480549177) translate(169.55 23.6)"/><use xlink:href="#b" transform="matrix(1,0,0,1,2543.625424927343,-567.7031480549177) translate(5 17.1)"/><use xlink:href="#J" transform="matrix(1,0,0,1,2587.625424927343,-567.7031480549177) translate(0 17.1)"/><use xlink:href="#d" transform="matrix(1,0,0,1,2705.475424927343,-567.7031480549177) translate(0 17.1)"/><use xlink:href="#x" transform="matrix(1,0,0,1,2543.625424927343,-535.7031480549177) translate(5.524999999999999 17.1)"/><use xlink:href="#c" transform="matrix(1,0,0,1,2587.625424927343,-535.7031480549177) translate(0 17.1)"/><use xlink:href="#d" transform="matrix(1,0,0,1,2705.475424927343,-535.7031480549177) translate(0 17.1)"/><use xlink:href="#K" transform="matrix(1,0,0,1,2587.625424927343,-503.70314805491773) translate(0 17.1)"/><use xlink:href="#L" transform="matrix(1,0,0,1,2705.475424927343,-503.70314805491773) translate(0 17.1)"/><use xlink:href="#M" transform="matrix(1,0,0,1,2705.475424927343,-503.70314805491773) translate(87.85 17.1)"/><use xlink:href="#N" transform="matrix(1,0,0,1,2705.475424927343,-503.70314805491773) translate(149.75 17.1)"/><use xlink:href="#O" transform="matrix(1,0,0,1,2705.475424927343,-503.70314805491773) translate(188.65 17.1)"/><path d="M2545.03-1214.47h-40.9a6 6 0 0 0-6 6v680.32a6 6 0 0 0 6 6h14.58" stroke="#3a414a" fill="none"/><path d="M2545.03-1224.47v20M2565.03-1214.47h-20" stroke="#3a414a" fill="#fff"/><path d="M2537.9-512.15l-20-10 20-10" stroke="#3a414a" fill="#fff" fill-opacity="0"/><path d="M2537.9-522.15h-20" stroke="#3a414a" fill="#fff"/><path d="M2054.37-1082.22a6 6 0 0 1 6-6h252.7a6 6 0 0 1 6 6v92a6 6 0 0 1-6 6h-252.7a6 6 0 0 1-6-6z" fill="#fff"/><path d="M2054.37-1082.22a6 6 0 0 1 6-6h252.7a6 6 0 0 1 6 6v92a6 6 0 0 1-6 6h-252.7a6 6 0 0 1-6-6zM2054.37-1048.22h264.7M2126.32-1048.22v64M2244.17-1048.22v64" stroke="#3a414a" fill="none"/><use xlink:href="#P" transform="matrix(1,0,0,1,2064.372315810475,-1088.2164397811284) translate(103.025 23.6)"/><use xlink:href="#b" transform="matrix(1,0,0,1,2059.372315810475,-1045.7164397811284) translate(19 17.1)"/><use xlink:href="#t" transform="matrix(1,0,0,1,2131.3223158104747,-1045.7164397811284) translate(0 17.1)"/><use xlink:href="#d" transform="matrix(1,0,0,1,2249.172315810475,-1045.7164397811284) translate(0 17.1)"/><use xlink:href="#s" transform="matrix(1,0,0,1,2059.372315810475,-1013.7164397811284) translate(5.024999999999999 17.1)"/><use xlink:href="#c" transform="matrix(1,0,0,1,2131.3223158104747,-1013.7164397811284) translate(0 17.1)"/><use xlink:href="#d" transform="matrix(1,0,0,1,2249.172315810475,-1013.7164397811284) translate(0 17.1)"/><path d="M2033.87-1032.2H1871.77" stroke="#3a414a" fill="none"/><path d="M2033.87-1042.2v20M2053.87-1032.2h-20" stroke="#3a414a" fill="#fff"/><path d="M1852.57-1042.2l20 10-20 10" stroke="#3a414a" fill="#fff" fill-opacity="0"/><path d="M1852.57-1032.2h20" stroke="#3a414a" fill="#fff"/><path d="M2545.03-1214.47h-96.73a6 6 0 0 0-6 6v202.4a6 6 0 0 1-6 6h-97.32" stroke="#3a414a" fill="none"/><path d="M2545.03-1224.47v20M2565.03-1214.47h-20" stroke="#3a414a" fill="#fff"/><path d="M2319.8-1010.08l20 10-20 10" stroke="#3a414a" fill="#fff" fill-opacity="0"/><path d="M2319.8-1000.08h20" stroke="#3a414a" fill="#fff"/><path d="M2054.37-636.2a6 6 0 0 1 6-6h273.55a6 6 0 0 1 6 6v188a6 6 0 0 1-6 6h-273.55a6 6 0 0 1-6-6z" fill="#fff"/><path d="M2054.37-636.2a6 6 0 0 1 6-6h273.55a6 6 0 0 1 6 6v188a6 6 0 0 1-6 6h-273.55a6 6 0 0 1-6-6zM2054.37-602.2h285.55M2126.32-602.2v160M2256.07-602.2v160" stroke="#3a414a" fill="none"/><use xlink:href="#Q" transform="matrix(1,0,0,1,2064.372315810475,-642.1904302992579) translate(85.6 23.6)"/><use xlink:href="#b" transform="matrix(1,0,0,1,2059.372315810475,-599.6904302992579) translate(19 17.1)"/><use xlink:href="#R" transform="matrix(1,0,0,1,2131.3223158104747,-599.6904302992579) translate(0 17.1)"/><use xlink:href="#d" transform="matrix(1,0,0,1,2261.0723158104747,-599.6904302992579) translate(0 17.1)"/><use xlink:href="#s" transform="matrix(1,0,0,1,2059.372315810475,-567.6904302992579) translate(5.024999999999999 17.1)"/><use xlink:href="#J" transform="matrix(1,0,0,1,2131.3223158104747,-567.6904302992579) translate(0 17.1)"/><use xlink:href="#d" transform="matrix(1,0,0,1,2261.0723158104747,-567.6904302992579) translate(0 17.1)"/><use xlink:href="#s" transform="matrix(1,0,0,1,2059.372315810475,-535.6904302992579) translate(5.024999999999999 17.1)"/><use xlink:href="#u" transform="matrix(1,0,0,1,2131.3223158104747,-535.6904302992579) translate(0 17.1)"/><use xlink:href="#d" transform="matrix(1,0,0,1,2261.0723158104747,-535.6904302992579) translate(0 17.1)"/><use xlink:href="#v" transform="matrix(1,0,0,1,2131.3223158104747,-503.69043029925786) translate(0 17.1)"/><use xlink:href="#d" transform="matrix(1,0,0,1,2261.0723158104747,-503.69043029925786) translate(0 17.1)"/><g><use xlink:href="#C" transform="matrix(1,0,0,1,2131.3223158104747,-471.69043029925786) translate(0 17.1)"/></g><g><use xlink:href="#D" transform="matrix(1,0,0,1,2261.0723158104747,-471.69043029925786) translate(0 17.1)"/></g><path d="M2518.13-554.23h-158.3" stroke="#3a414a" fill="none"/><path d="M2518.13-564.23v20M2538.13-554.23h-20" stroke="#3a414a" fill="#fff"/><path d="M2340.65-564.23l20 10-20 10" stroke="#3a414a" fill="#fff" fill-opacity="0"/><path d="M2340.65-554.23h20" stroke="#3a414a" fill="#fff"/><path d="M1911.05-522.12h123.4" stroke="#3a414a" fill="none"/><path d="M1911.05-512.12v-20M1891.05-522.12h20" stroke="#3a414a" fill="#fff"/><path d="M2053.65-512.12l-20-10 20-10" stroke="#3a414a" fill="#fff" fill-opacity="0"/><path d="M2053.65-522.12h-20" stroke="#3a414a" fill="#fff"/><defs><path d="M96-169c-40 0-48 33-48 73s9 75 48 75c24 0 41-14 43-38l32 2c-6 37-31 61-74 61-59 0-76-41-82-99-10-93 101-131 147-64 4 7 5 14 7 22l-32 3c-4-21-16-35-41-35" id="S"/><path d="M84 4C-5 8 30-112 23-190h32v120c0 31 7 50 39 49 72-2 45-101 50-169h31l1 190h-30c-1-10 1-25-2-33-11 22-28 36-60 37" id="T"/><path d="M135-143c-3-34-86-38-87 0 15 53 115 12 119 90S17 21 10-45l28-5c4 36 97 45 98 0-10-56-113-15-118-90-4-57 82-63 122-42 12 7 21 19 24 35" id="U"/><path d="M59-47c-2 24 18 29 38 22v24C64 9 27 4 27-40v-127H5v-23h24l9-43h21v43h35v23H59v120" id="V"/><path d="M100-194c62-1 85 37 85 99 1 63-27 99-86 99S16-35 15-95c0-66 28-99 85-99zM99-20c44 1 53-31 53-75 0-43-8-75-51-75s-53 32-53 75 10 74 51 75" id="W"/><path d="M210-169c-67 3-38 105-44 169h-31v-121c0-29-5-50-35-48C34-165 62-65 56 0H25l-1-190h30c1 10-1 24 2 32 10-44 99-50 107 0 11-21 27-35 58-36 85-2 47 119 55 194h-31v-121c0-29-5-49-35-48" id="X"/><path d="M100-194c63 0 86 42 84 106H49c0 40 14 67 53 68 26 1 43-12 49-29l28 8c-11 28-37 45-77 45C44 4 14-33 15-96c1-61 26-98 85-98zm52 81c6-60-76-77-97-28-3 7-6 17-6 28h103" id="Y"/><path d="M114-163C36-179 61-72 57 0H25l-1-190h30c1 12-1 29 2 39 6-27 23-49 58-41v29" id="Z"/><g id="a"><use transform="matrix(0.05,0,0,0.05,0,0)" xlink:href="#S"/><use transform="matrix(0.05,0,0,0.05,9,0)" xlink:href="#T"/><use transform="matrix(0.05,0,0,0.05,19,0)" xlink:href="#U"/><use transform="matrix(0.05,0,0,0.05,28,0)" xlink:href="#V"/><use transform="matrix(0.05,0,0,0.05,33,0)" xlink:href="#W"/><use transform="matrix(0.05,0,0,0.05,43,0)" xlink:href="#X"/><use transform="matrix(0.05,0,0,0.05,57.95,0)" xlink:href="#Y"/><use transform="matrix(0.05,0,0,0.05,67.95,0)" xlink:href="#Z"/><use transform="matrix(0.05,0,0,0.05,73.9,0)" xlink:href="#U"/></g><path d="M30-248c87 1 191-15 191 75 0 78-77 80-158 76V0H30v-248zm33 125c57 0 124 11 124-50 0-59-68-47-124-48v98" id="aa"/><path d="M194 0L95-120 63-95V0H30v-248h33v124l119-124h40L117-140 236 0h-42" id="ab"/><g id="b"><use transform="matrix(0.05,0,0,0.05,0,0)" xlink:href="#aa"/><use transform="matrix(0.05,0,0,0.05,12,0)" xlink:href="#ab"/></g><path d="M-5 72V49h209v23H-5" id="ac"/><path d="M24-231v-30h32v30H24zM24 0v-190h32V0H24" id="ad"/><path d="M85-194c31 0 48 13 60 33l-1-100h32l1 261h-30c-2-10 0-23-3-31C134-8 116 4 85 4 32 4 16-35 15-94c0-66 23-100 70-100zm9 24c-40 0-46 34-46 75 0 40 6 74 45 74 42 0 51-32 51-76 0-42-9-74-50-73" id="ae"/><g id="c"><use transform="matrix(0.05,0,0,0.05,0,0)" xlink:href="#S"/><use transform="matrix(0.05,0,0,0.05,9,0)" xlink:href="#T"/><use transform="matrix(0.05,0,0,0.05,19,0)" xlink:href="#U"/><use transform="matrix(0.05,0,0,0.05,28,0)" xlink:href="#V"/><use transform="matrix(0.05,0,0,0.05,33,0)" xlink:href="#W"/><use transform="matrix(0.05,0,0,0.05,43,0)" xlink:href="#X"/><use transform="matrix(0.05,0,0,0.05,57.95,0)" xlink:href="#Y"/><use transform="matrix(0.05,0,0,0.05,67.95,0)" xlink:href="#Z"/><use transform="matrix(0.05,0,0,0.05,73.9,0)" xlink:href="#ac"/><use transform="matrix(0.05,0,0,0.05,83.9,0)" xlink:href="#ad"/><use transform="matrix(0.05,0,0,0.05,87.85000000000001,0)" xlink:href="#ae"/></g><path d="M117-194c89-4 53 116 60 194h-32v-121c0-31-8-49-39-48C34-167 62-67 57 0H25l-1-190h30c1 10-1 24 2 32 11-22 29-35 61-36" id="af"/><path d="M177-190C167-65 218 103 67 71c-23-6-38-20-44-43l32-5c15 47 100 32 89-28v-30C133-14 115 1 83 1 29 1 15-40 15-95c0-56 16-97 71-98 29-1 48 16 59 35 1-10 0-23 2-32h30zM94-22c36 0 50-32 50-73 0-42-14-75-50-75-39 0-46 34-46 75s6 73 46 73" id="ag"/><g id="d"><use transform="matrix(0.05,0,0,0.05,0,0)" xlink:href="#ad"/><use transform="matrix(0.05,0,0,0.05,3.95,0)" xlink:href="#af"/><use transform="matrix(0.05,0,0,0.05,13.949999999999998,0)" xlink:href="#V"/><use transform="matrix(0.05,0,0,0.05,18.95,0)" xlink:href="#Y"/><use transform="matrix(0.05,0,0,0.05,28.950000000000003,0)" xlink:href="#ag"/><use transform="matrix(0.05,0,0,0.05,38.95,0)" xlink:href="#Y"/><use transform="matrix(0.05,0,0,0.05,48.95,0)" xlink:href="#Z"/></g><path d="M101-234c-31-9-42 10-38 44h38v23H63V0H32v-167H5v-23h27c-7-52 17-82 69-68v24" id="ah"/><path d="M141-36C126-15 110 5 73 4 37 3 15-17 15-53c-1-64 63-63 125-63 3-35-9-54-41-54-24 1-41 7-42 31l-33-3c5-37 33-52 76-52 45 0 72 20 72 64v82c-1 20 7 32 28 27v20c-31 9-61-2-59-35zM48-53c0 20 12 33 32 33 41-3 63-29 60-74-43 2-92-5-92 41" id="ai"/><g id="e"><use transform="matrix(0.05,0,0,0.05,0,0)" xlink:href="#ah"/><use transform="matrix(0.05,0,0,0.05,5,0)" xlink:href="#ad"/><use transform="matrix(0.05,0,0,0.05,8.95,0)" xlink:href="#Z"/><use transform="matrix(0.05,0,0,0.05,14.899999999999999,0)" xlink:href="#U"/><use transform="matrix(0.05,0,0,0.05,23.9,0)" xlink:href="#V"/><use transform="matrix(0.05,0,0,0.05,28.899999999999995,0)" xlink:href="#ac"/><use transform="matrix(0.05,0,0,0.05,38.9,0)" xlink:href="#af"/><use transform="matrix(0.05,0,0,0.05,48.9,0)" xlink:href="#ai"/><use transform="matrix(0.05,0,0,0.05,58.900000000000006,0)" xlink:href="#X"/><use transform="matrix(0.05,0,0,0.05,73.85,0)" xlink:href="#Y"/></g><path d="M106-169C34-169 62-67 57 0H25v-261h32l-1 103c12-21 28-36 61-36 89 0 53 116 60 194h-32v-121c2-32-8-49-39-48" id="aj"/><g id="f"><use transform="matrix(0.05,0,0,0.05,0,0)" xlink:href="#S"/><use transform="matrix(0.05,0,0,0.05,9,0)" xlink:href="#aj"/><use transform="matrix(0.05,0,0,0.05,19,0)" xlink:href="#ai"/><use transform="matrix(0.05,0,0,0.05,29,0)" xlink:href="#Z"/><use transform="matrix(0.05,0,0,0.05,34.95,0)" xlink:href="#ai"/><use transform="matrix(0.05,0,0,0.05,44.95,0)" xlink:href="#S"/><use transform="matrix(0.05,0,0,0.05,53.95,0)" xlink:href="#V"/><use transform="matrix(0.05,0,0,0.05,58.95,0)" xlink:href="#Y"/><use transform="matrix(0.05,0,0,0.05,68.95,0)" xlink:href="#Z"/></g><path d="M108 0H70L1-190h34L89-25l56-165h34" id="ak"/><path d="M179-190L93 31C79 59 56 82 12 73V49c39 6 53-20 64-50L1-190h34L92-34l54-156h33" id="al"/><path d="M87 75C49 33 22-17 22-94c0-76 28-126 65-167h31c-38 41-64 92-64 168S80 34 118 75H87" id="am"/><path d="M54-142c48-35 137-8 131 61C196 18 31 33 14-55l32-4c7 23 22 37 52 37 35-1 51-22 54-58 4-55-73-65-99-34H22l8-134h141v27H59" id="an"/><path d="M101-251c68 0 85 55 85 127S166 4 100 4C33 4 14-52 14-124c0-73 17-127 87-127zm-1 229c47 0 54-49 54-102s-4-102-53-102c-51 0-55 48-55 102 0 53 5 102 54 102" id="ao"/><path d="M33-261c38 41 65 92 65 168S71 34 33 75H2C39 34 66-17 66-93S39-220 2-261h31" id="ap"/><g id="g"><use transform="matrix(0.05,0,0,0.05,0,0)" xlink:href="#ak"/><use transform="matrix(0.05,0,0,0.05,9,0)" xlink:href="#ai"/><use transform="matrix(0.05,0,0,0.05,19,0)" xlink:href="#Z"/><use transform="matrix(0.05,0,0,0.05,24.95,0)" xlink:href="#al"/><use transform="matrix(0.05,0,0,0.05,33.95,0)" xlink:href="#ad"/><use transform="matrix(0.05,0,0,0.05,37.900000000000006,0)" xlink:href="#af"/><use transform="matrix(0.05,0,0,0.05,47.900000000000006,0)" xlink:href="#ag"/><use transform="matrix(0.05,0,0,0.05,57.900000000000006,0)" xlink:href="#am"/><use transform="matrix(0.05,0,0,0.05,63.85,0)" xlink:href="#an"/><use transform="matrix(0.05,0,0,0.05,73.85000000000001,0)" xlink:href="#ao"/><use transform="matrix(0.05,0,0,0.05,83.85000000000001,0)" xlink:href="#ap"/></g><path d="M24 0v-261h32V0H24" id="aq"/><g id="h"><use transform="matrix(0.05,0,0,0.05,0,0)" xlink:href="#aq"/><use transform="matrix(0.05,0,0,0.05,3.95,0)" xlink:href="#ai"/><use transform="matrix(0.05,0,0,0.05,13.949999999999998,0)" xlink:href="#U"/><use transform="matrix(0.05,0,0,0.05,22.95,0)" xlink:href="#V"/><use transform="matrix(0.05,0,0,0.05,27.950000000000003,0)" xlink:href="#ac"/><use transform="matrix(0.05,0,0,0.05,37.95,0)" xlink:href="#af"/><use transform="matrix(0.05,0,0,0.05,47.95,0)" xlink:href="#ai"/><use transform="matrix(0.05,0,0,0.05,57.95,0)" xlink:href="#X"/><use transform="matrix(0.05,0,0,0.05,72.9,0)" xlink:href="#Y"/></g><path d="M205 0l-28-72H64L36 0H1l101-248h38L239 0h-34zm-38-99l-47-123c-12 45-31 82-46 123h93" id="ar"/><g id="i"><use transform="matrix(0.05,0,0,0.05,0,0)" xlink:href="#ar"/><use transform="matrix(0.05,0,0,0.05,12,0)" xlink:href="#ab"/></g><g id="j"><use transform="matrix(0.05,0,0,0.05,0,0)" xlink:href="#Y"/><use transform="matrix(0.05,0,0,0.05,10,0)" xlink:href="#X"/><use transform="matrix(0.05,0,0,0.05,24.950000000000003,0)" xlink:href="#ai"/><use transform="matrix(0.05,0,0,0.05,34.95,0)" xlink:href="#ad"/><use transform="matrix(0.05,0,0,0.05,38.900000000000006,0)" xlink:href="#aq"/></g><path d="M27 0v-27h64v-190l-56 39v-29l58-41h29v221h61V0H27" id="as"/><g id="k"><use transform="matrix(0.05,0,0,0.05,0,0)" xlink:href="#ak"/><use transform="matrix(0.05,0,0,0.05,9,0)" xlink:href="#ai"/><use transform="matrix(0.05,0,0,0.05,19,0)" xlink:href="#Z"/><use transform="matrix(0.05,0,0,0.05,24.95,0)" xlink:href="#al"/><use transform="matrix(0.05,0,0,0.05,33.95,0)" xlink:href="#ad"/><use transform="matrix(0.05,0,0,0.05,37.900000000000006,0)" xlink:href="#af"/><use transform="matrix(0.05,0,0,0.05,47.900000000000006,0)" xlink:href="#ag"/><use transform="matrix(0.05,0,0,0.05,57.900000000000006,0)" xlink:href="#am"/><use transform="matrix(0.05,0,0,0.05,63.85,0)" xlink:href="#as"/><use transform="matrix(0.05,0,0,0.05,73.85000000000001,0)" xlink:href="#ao"/><use transform="matrix(0.05,0,0,0.05,83.85000000000001,0)" xlink:href="#ao"/><use transform="matrix(0.05,0,0,0.05,93.85000000000001,0)" xlink:href="#ap"/></g><g id="l"><use transform="matrix(0.05,0,0,0.05,0,0)" xlink:href="#U"/><use transform="matrix(0.05,0,0,0.05,9,0)" xlink:href="#V"/><use transform="matrix(0.05,0,0,0.05,14,0)" xlink:href="#Z"/><use transform="matrix(0.05,0,0,0.05,19.95,0)" xlink:href="#Y"/><use transform="matrix(0.05,0,0,0.05,29.950000000000003,0)" xlink:href="#Y"/><use transform="matrix(0.05,0,0,0.05,39.95,0)" xlink:href="#V"/><use transform="matrix(0.05,0,0,0.05,44.95,0)" xlink:href="#ac"/><use transform="matrix(0.05,0,0,0.05,54.95,0)" xlink:href="#ai"/><use transform="matrix(0.05,0,0,0.05,64.95,0)" xlink:href="#ae"/><use transform="matrix(0.05,0,0,0.05,74.95,0)" xlink:href="#ae"/><use transform="matrix(0.05,0,0,0.05,84.95,0)" xlink:href="#Z"/><use transform="matrix(0.05,0,0,0.05,90.9,0)" xlink:href="#Y"/><use transform="matrix(0.05,0,0,0.05,100.9,0)" xlink:href="#U"/><use transform="matrix(0.05,0,0,0.05,109.9,0)" xlink:href="#U"/></g><path d="M115-194c55 1 70 41 70 98S169 2 115 4C84 4 66-9 55-30l1 105H24l-1-265h31l2 30c10-21 28-34 59-34zm-8 174c40 0 45-34 45-75s-6-73-45-74c-42 0-51 32-51 76 0 43 10 73 51 73" id="at"/><g id="m"><use transform="matrix(0.05,0,0,0.05,0,0)" xlink:href="#at"/><use transform="matrix(0.05,0,0,0.05,10,0)" xlink:href="#Z"/><use transform="matrix(0.05,0,0,0.05,15.949999999999998,0)" xlink:href="#W"/><use transform="matrix(0.05,0,0,0.05,25.950000000000003,0)" xlink:href="#ak"/><use transform="matrix(0.05,0,0,0.05,34.95,0)" xlink:href="#ad"/><use transform="matrix(0.05,0,0,0.05,38.900000000000006,0)" xlink:href="#af"/><use transform="matrix(0.05,0,0,0.05,48.900000000000006,0)" xlink:href="#S"/><use transform="matrix(0.05,0,0,0.05,57.900000000000006,0)" xlink:href="#Y"/></g><g id="n"><use transform="matrix(0.05,0,0,0.05,0,0)" xlink:href="#S"/><use transform="matrix(0.05,0,0,0.05,9,0)" xlink:href="#W"/><use transform="matrix(0.05,0,0,0.05,19,0)" xlink:href="#T"/><use transform="matrix(0.05,0,0,0.05,29,0)" xlink:href="#af"/><use transform="matrix(0.05,0,0,0.05,39,0)" xlink:href="#V"/><use transform="matrix(0.05,0,0,0.05,44,0)" xlink:href="#Z"/><use transform="matrix(0.05,0,0,0.05,49.95,0)" xlink:href="#al"/></g><g id="o"><use transform="matrix(0.05,0,0,0.05,0,0)" xlink:href="#at"/><use transform="matrix(0.05,0,0,0.05,10,0)" xlink:href="#W"/><use transform="matrix(0.05,0,0,0.05,20,0)" xlink:href="#U"/><use transform="matrix(0.05,0,0,0.05,29,0)" xlink:href="#V"/><use transform="matrix(0.05,0,0,0.05,34,0)" xlink:href="#ai"/><use transform="matrix(0.05,0,0,0.05,44,0)" xlink:href="#aq"/><use transform="matrix(0.05,0,0,0.05,47.95,0)" xlink:href="#ac"/><use transform="matrix(0.05,0,0,0.05,57.95,0)" xlink:href="#S"/><use transform="matrix(0.05,0,0,0.05,66.95,0)" xlink:href="#W"/><use transform="matrix(0.05,0,0,0.05,76.95,0)" xlink:href="#ae"/><use transform="matrix(0.05,0,0,0.05,86.95,0)" xlink:href="#Y"/></g><path d="M101-251c82-7 93 87 43 132L82-64C71-53 59-42 53-27h129V0H18c2-99 128-94 128-182 0-28-16-43-45-43s-46 15-49 41l-32-3c6-41 34-60 81-64" id="au"/><g id="p"><use transform="matrix(0.05,0,0,0.05,0,0)" xlink:href="#ak"/><use transform="matrix(0.05,0,0,0.05,9,0)" xlink:href="#ai"/><use transform="matrix(0.05,0,0,0.05,19,0)" xlink:href="#Z"/><use transform="matrix(0.05,0,0,0.05,24.95,0)" xlink:href="#al"/><use transform="matrix(0.05,0,0,0.05,33.95,0)" xlink:href="#ad"/><use transform="matrix(0.05,0,0,0.05,37.900000000000006,0)" xlink:href="#af"/><use transform="matrix(0.05,0,0,0.05,47.900000000000006,0)" xlink:href="#ag"/><use transform="matrix(0.05,0,0,0.05,57.900000000000006,0)" xlink:href="#am"/><use transform="matrix(0.05,0,0,0.05,63.85,0)" xlink:href="#au"/><use transform="matrix(0.05,0,0,0.05,73.85000000000001,0)" xlink:href="#ao"/><use transform="matrix(0.05,0,0,0.05,83.85000000000001,0)" xlink:href="#ap"/></g><g id="q"><use transform="matrix(0.05,0,0,0.05,0,0)" xlink:href="#S"/><use transform="matrix(0.05,0,0,0.05,9,0)" xlink:href="#ai"/><use transform="matrix(0.05,0,0,0.05,19,0)" xlink:href="#Z"/><use transform="matrix(0.05,0,0,0.05,24.95,0)" xlink:href="#V"/><use transform="matrix(0.05,0,0,0.05,29.950000000000003,0)" xlink:href="#ac"/><use transform="matrix(0.05,0,0,0.05,39.95,0)" xlink:href="#ad"/><use transform="matrix(0.05,0,0,0.05,43.900000000000006,0)" xlink:href="#V"/><use transform="matrix(0.05,0,0,0.05,48.900000000000006,0)" xlink:href="#Y"/><use transform="matrix(0.05,0,0,0.05,58.900000000000006,0)" xlink:href="#X"/><use transform="matrix(0.05,0,0,0.05,73.85000000000001,0)" xlink:href="#U"/></g><g id="r"><use transform="matrix(0.05,0,0,0.05,0,0)" xlink:href="#S"/><use transform="matrix(0.05,0,0,0.05,9,0)" xlink:href="#ai"/><use transform="matrix(0.05,0,0,0.05,19,0)" xlink:href="#Z"/><use transform="matrix(0.05,0,0,0.05,24.95,0)" xlink:href="#V"/><use transform="matrix(0.05,0,0,0.05,29.950000000000003,0)" xlink:href="#ac"/><use transform="matrix(0.05,0,0,0.05,39.95,0)" xlink:href="#ad"/><use transform="matrix(0.05,0,0,0.05,43.900000000000006,0)" xlink:href="#V"/><use transform="matrix(0.05,0,0,0.05,48.900000000000006,0)" xlink:href="#Y"/><use transform="matrix(0.05,0,0,0.05,58.900000000000006,0)" xlink:href="#X"/><use transform="matrix(0.05,0,0,0.05,73.85000000000001,0)" xlink:href="#ac"/><use transform="matrix(0.05,0,0,0.05,83.85000000000001,0)" xlink:href="#ad"/><use transform="matrix(0.05,0,0,0.05,87.80000000000001,0)" xlink:href="#ae"/></g><path d="M63-220v92h138v28H63V0H30v-248h175v28H63" id="av"/><path d="M68-38c1 34 0 65-14 84H32c9-13 17-26 17-46H33v-38h35" id="aw"/><g id="s"><use transform="matrix(0.05,0,0,0.05,0,0)" xlink:href="#av"/><use transform="matrix(0.05,0,0,0.05,10.950000000000001,0)" xlink:href="#ab"/><use transform="matrix(0.05,0,0,0.05,22.950000000000003,0)" xlink:href="#aw"/><use transform="matrix(0.05,0,0,0.05,27.950000000000003,0)" xlink:href="#ar"/><use transform="matrix(0.05,0,0,0.05,39.95,0)" xlink:href="#ab"/></g><g id="t"><use transform="matrix(0.05,0,0,0.05,0,0)" xlink:href="#S"/><use transform="matrix(0.05,0,0,0.05,9,0)" xlink:href="#ai"/><use transform="matrix(0.05,0,0,0.05,19,0)" xlink:href="#Z"/><use transform="matrix(0.05,0,0,0.05,24.95,0)" xlink:href="#V"/><use transform="matrix(0.05,0,0,0.05,29.950000000000003,0)" xlink:href="#ac"/><use transform="matrix(0.05,0,0,0.05,39.95,0)" xlink:href="#ad"/><use transform="matrix(0.05,0,0,0.05,43.900000000000006,0)" xlink:href="#ae"/></g><g id="u"><use transform="matrix(0.05,0,0,0.05,0,0)" xlink:href="#at"/><use transform="matrix(0.05,0,0,0.05,10,0)" xlink:href="#Z"/><use transform="matrix(0.05,0,0,0.05,15.949999999999998,0)" xlink:href="#W"/><use transform="matrix(0.05,0,0,0.05,25.950000000000003,0)" xlink:href="#ae"/><use transform="matrix(0.05,0,0,0.05,35.95,0)" xlink:href="#T"/><use transform="matrix(0.05,0,0,0.05,45.95,0)" xlink:href="#S"/><use transform="matrix(0.05,0,0,0.05,54.95,0)" xlink:href="#V"/><use transform="matrix(0.05,0,0,0.05,59.95,0)" xlink:href="#ac"/><use transform="matrix(0.05,0,0,0.05,69.95,0)" xlink:href="#ad"/><use transform="matrix(0.05,0,0,0.05,73.9,0)" xlink:href="#ae"/></g><path d="M145-31C134-9 116 4 85 4 32 4 16-35 15-94c0-59 17-99 70-100 32-1 48 14 60 33 0-11-1-24 2-32h30l-1 268h-32zM93-21c41 0 51-33 51-76s-8-73-50-73c-40 0-46 35-46 75s5 74 45 74" id="ax"/><g id="v"><use transform="matrix(0.05,0,0,0.05,0,0)" xlink:href="#ax"/><use transform="matrix(0.05,0,0,0.05,10,0)" xlink:href="#T"/><use transform="matrix(0.05,0,0,0.05,20,0)" xlink:href="#ai"/><use transform="matrix(0.05,0,0,0.05,30,0)" xlink:href="#af"/><use transform="matrix(0.05,0,0,0.05,40,0)" xlink:href="#V"/><use transform="matrix(0.05,0,0,0.05,45,0)" xlink:href="#ad"/><use transform="matrix(0.05,0,0,0.05,48.95,0)" xlink:href="#V"/><use transform="matrix(0.05,0,0,0.05,53.95,0)" xlink:href="#al"/></g><g id="w"><use transform="matrix(0.05,0,0,0.05,0,0)" xlink:href="#at"/><use transform="matrix(0.05,0,0,0.05,10,0)" xlink:href="#Z"/><use transform="matrix(0.05,0,0,0.05,15.949999999999998,0)" xlink:href="#W"/><use transform="matrix(0.05,0,0,0.05,25.950000000000003,0)" xlink:href="#ae"/><use transform="matrix(0.05,0,0,0.05,35.95,0)" xlink:href="#T"/><use transform="matrix(0.05,0,0,0.05,45.95,0)" xlink:href="#S"/><use transform="matrix(0.05,0,0,0.05,54.95,0)" xlink:href="#V"/><use transform="matrix(0.05,0,0,0.05,59.95,0)" xlink:href="#U"/></g><g id="x"><use transform="matrix(0.05,0,0,0.05,0,0)" xlink:href="#av"/><use transform="matrix(0.05,0,0,0.05,10.950000000000001,0)" xlink:href="#ab"/></g><g id="y"><use transform="matrix(0.05,0,0,0.05,0,0)" xlink:href="#at"/><use transform="matrix(0.05,0,0,0.05,10,0)" xlink:href="#Z"/><use transform="matrix(0.05,0,0,0.05,15.949999999999998,0)" xlink:href="#W"/><use transform="matrix(0.05,0,0,0.05,25.950000000000003,0)" xlink:href="#ae"/><use transform="matrix(0.05,0,0,0.05,35.95,0)" xlink:href="#T"/><use transform="matrix(0.05,0,0,0.05,45.95,0)" xlink:href="#S"/><use transform="matrix(0.05,0,0,0.05,54.95,0)" xlink:href="#V"/><use transform="matrix(0.05,0,0,0.05,59.95,0)" xlink:href="#ac"/><use transform="matrix(0.05,0,0,0.05,69.95,0)" xlink:href="#V"/><use transform="matrix(0.05,0,0,0.05,74.95,0)" xlink:href="#al"/><use transform="matrix(0.05,0,0,0.05,83.95,0)" xlink:href="#at"/><use transform="matrix(0.05,0,0,0.05,93.95,0)" xlink:href="#Y"/><use transform="matrix(0.05,0,0,0.05,103.95,0)" xlink:href="#ac"/><use transform="matrix(0.05,0,0,0.05,113.95,0)" xlink:href="#ad"/><use transform="matrix(0.05,0,0,0.05,117.9,0)" xlink:href="#ae"/></g><g id="z"><use transform="matrix(0.05,0,0,0.05,0,0)" xlink:href="#af"/><use transform="matrix(0.05,0,0,0.05,10,0)" xlink:href="#ai"/><use transform="matrix(0.05,0,0,0.05,20,0)" xlink:href="#X"/><use transform="matrix(0.05,0,0,0.05,34.95,0)" xlink:href="#Y"/></g><g id="A"><use transform="matrix(0.05,0,0,0.05,0,0)" xlink:href="#ae"/><use transform="matrix(0.05,0,0,0.05,10,0)" xlink:href="#Y"/><use transform="matrix(0.05,0,0,0.05,20,0)" xlink:href="#U"/><use transform="matrix(0.05,0,0,0.05,29,0)" xlink:href="#S"/><use transform="matrix(0.05,0,0,0.05,38,0)" xlink:href="#Z"/><use transform="matrix(0.05,0,0,0.05,43.95,0)" xlink:href="#ad"/><use transform="matrix(0.05,0,0,0.05,47.900000000000006,0)" xlink:href="#at"/><use transform="matrix(0.05,0,0,0.05,57.900000000000006,0)" xlink:href="#V"/><use transform="matrix(0.05,0,0,0.05,62.900000000000006,0)" xlink:href="#ad"/><use transform="matrix(0.05,0,0,0.05,66.85000000000001,0)" xlink:href="#W"/><use transform="matrix(0.05,0,0,0.05,76.85000000000001,0)" xlink:href="#af"/></g><path d="M141 0L90-78 38 0H4l68-98-65-92h35l48 74 47-74h35l-64 92 68 98h-35" id="ay"/><g id="B"><use transform="matrix(0.05,0,0,0.05,0,0)" xlink:href="#V"/><use transform="matrix(0.05,0,0,0.05,5,0)" xlink:href="#Y"/><use transform="matrix(0.05,0,0,0.05,15,0)" xlink:href="#ay"/><use transform="matrix(0.05,0,0,0.05,24,0)" xlink:href="#V"/></g><g id="C"><use transform="matrix(0.05,0,0,0.05,0,0)" xlink:href="#at"/><use transform="matrix(0.05,0,0,0.05,10,0)" xlink:href="#Z"/><use transform="matrix(0.05,0,0,0.05,15.949999999999998,0)" xlink:href="#ad"/><use transform="matrix(0.05,0,0,0.05,19.9,0)" xlink:href="#S"/><use transform="matrix(0.05,0,0,0.05,28.899999999999995,0)" xlink:href="#Y"/></g><g id="D"><use transform="matrix(0.05,0,0,0.05,0,0)" xlink:href="#af"/><use transform="matrix(0.05,0,0,0.05,10,0)" xlink:href="#T"/><use transform="matrix(0.05,0,0,0.05,20,0)" xlink:href="#X"/><use transform="matrix(0.05,0,0,0.05,34.95,0)" xlink:href="#Y"/><use transform="matrix(0.05,0,0,0.05,44.95,0)" xlink:href="#Z"/><use transform="matrix(0.05,0,0,0.05,50.900000000000006,0)" xlink:href="#ad"/><use transform="matrix(0.05,0,0,0.05,54.85,0)" xlink:href="#S"/></g><path d="M143 0L79-87 56-68V0H24v-261h32v163l83-92h37l-77 82L181 0h-38" id="az"/><g id="E"><use transform="matrix(0.05,0,0,0.05,0,0)" xlink:href="#U"/><use transform="matrix(0.05,0,0,0.05,9,0)" xlink:href="#az"/><use transform="matrix(0.05,0,0,0.05,18,0)" xlink:href="#T"/></g><g id="F"><use transform="matrix(0.05,0,0,0.05,0,0)" xlink:href="#ak"/><use transform="matrix(0.05,0,0,0.05,9,0)" xlink:href="#ai"/><use transform="matrix(0.05,0,0,0.05,19,0)" xlink:href="#Z"/><use transform="matrix(0.05,0,0,0.05,24.95,0)" xlink:href="#al"/><use transform="matrix(0.05,0,0,0.05,33.95,0)" xlink:href="#ad"/><use transform="matrix(0.05,0,0,0.05,37.900000000000006,0)" xlink:href="#af"/><use transform="matrix(0.05,0,0,0.05,47.900000000000006,0)" xlink:href="#ag"/><use transform="matrix(0.05,0,0,0.05,57.900000000000006,0)" xlink:href="#am"/><use transform="matrix(0.05,0,0,0.05,63.85,0)" xlink:href="#au"/><use transform="matrix(0.05,0,0,0.05,73.85000000000001,0)" xlink:href="#an"/><use transform="matrix(0.05,0,0,0.05,83.85000000000001,0)" xlink:href="#an"/><use transform="matrix(0.05,0,0,0.05,93.85000000000001,0)" xlink:href="#ap"/></g><g id="G"><use transform="matrix(0.05,0,0,0.05,0,0)" xlink:href="#at"/><use transform="matrix(0.05,0,0,0.05,10,0)" xlink:href="#Z"/><use transform="matrix(0.05,0,0,0.05,15.949999999999998,0)" xlink:href="#W"/><use transform="matrix(0.05,0,0,0.05,25.950000000000003,0)" xlink:href="#ae"/><use transform="matrix(0.05,0,0,0.05,35.95,0)" xlink:href="#T"/><use transform="matrix(0.05,0,0,0.05,45.95,0)" xlink:href="#S"/><use transform="matrix(0.05,0,0,0.05,54.95,0)" xlink:href="#V"/><use transform="matrix(0.05,0,0,0.05,59.95,0)" xlink:href="#ac"/><use transform="matrix(0.05,0,0,0.05,69.95,0)" xlink:href="#V"/><use transform="matrix(0.05,0,0,0.05,74.95,0)" xlink:href="#al"/><use transform="matrix(0.05,0,0,0.05,83.95,0)" xlink:href="#at"/><use transform="matrix(0.05,0,0,0.05,93.95,0)" xlink:href="#Y"/><use transform="matrix(0.05,0,0,0.05,103.95,0)" xlink:href="#U"/></g><g id="H"><use transform="matrix(0.05,0,0,0.05,0,0)" xlink:href="#V"/><use transform="matrix(0.05,0,0,0.05,5,0)" xlink:href="#al"/><use transform="matrix(0.05,0,0,0.05,14,0)" xlink:href="#at"/><use transform="matrix(0.05,0,0,0.05,24,0)" xlink:href="#Y"/><use transform="matrix(0.05,0,0,0.05,34,0)" xlink:href="#ac"/><use transform="matrix(0.05,0,0,0.05,44,0)" xlink:href="#af"/><use transform="matrix(0.05,0,0,0.05,54,0)" xlink:href="#ai"/><use transform="matrix(0.05,0,0,0.05,64,0)" xlink:href="#X"/><use transform="matrix(0.05,0,0,0.05,78.95,0)" xlink:href="#Y"/></g><g id="I"><use transform="matrix(0.05,0,0,0.05,0,0)" xlink:href="#W"/><use transform="matrix(0.05,0,0,0.05,10,0)" xlink:href="#Z"/><use transform="matrix(0.05,0,0,0.05,15.949999999999998,0)" xlink:href="#ae"/><use transform="matrix(0.05,0,0,0.05,25.950000000000003,0)" xlink:href="#Y"/><use transform="matrix(0.05,0,0,0.05,35.95,0)" xlink:href="#Z"/><use transform="matrix(0.05,0,0,0.05,41.900000000000006,0)" xlink:href="#U"/></g><g id="J"><use transform="matrix(0.05,0,0,0.05,0,0)" xlink:href="#W"/><use transform="matrix(0.05,0,0,0.05,10,0)" xlink:href="#Z"/><use transform="matrix(0.05,0,0,0.05,15.949999999999998,0)" xlink:href="#ae"/><use transform="matrix(0.05,0,0,0.05,25.950000000000003,0)" xlink:href="#Y"/><use transform="matrix(0.05,0,0,0.05,35.95,0)" xlink:href="#Z"/><use transform="matrix(0.05,0,0,0.05,41.900000000000006,0)" xlink:href="#ac"/><use transform="matrix(0.05,0,0,0.05,51.900000000000006,0)" xlink:href="#ad"/><use transform="matrix(0.05,0,0,0.05,55.85,0)" xlink:href="#ae"/></g><g id="K"><use transform="matrix(0.05,0,0,0.05,0,0)" xlink:href="#W"/><use transform="matrix(0.05,0,0,0.05,10,0)" xlink:href="#Z"/><use transform="matrix(0.05,0,0,0.05,15.949999999999998,0)" xlink:href="#ae"/><use transform="matrix(0.05,0,0,0.05,25.950000000000003,0)" xlink:href="#Y"/><use transform="matrix(0.05,0,0,0.05,35.95,0)" xlink:href="#Z"/><use transform="matrix(0.05,0,0,0.05,41.900000000000006,0)" xlink:href="#ac"/><use transform="matrix(0.05,0,0,0.05,51.900000000000006,0)" xlink:href="#ae"/><use transform="matrix(0.05,0,0,0.05,61.900000000000006,0)" xlink:href="#ai"/><use transform="matrix(0.05,0,0,0.05,71.9,0)" xlink:href="#V"/><use transform="matrix(0.05,0,0,0.05,76.9,0)" xlink:href="#Y"/></g><g id="L"><use transform="matrix(0.05,0,0,0.05,0,0)" xlink:href="#V"/><use transform="matrix(0.05,0,0,0.05,5,0)" xlink:href="#ad"/><use transform="matrix(0.05,0,0,0.05,8.95,0)" xlink:href="#X"/><use transform="matrix(0.05,0,0,0.05,23.9,0)" xlink:href="#Y"/><use transform="matrix(0.05,0,0,0.05,33.9,0)" xlink:href="#U"/><use transform="matrix(0.05,0,0,0.05,42.9,0)" xlink:href="#V"/><use transform="matrix(0.05,0,0,0.05,47.9,0)" xlink:href="#ai"/><use transform="matrix(0.05,0,0,0.05,57.900000000000006,0)" xlink:href="#X"/><use transform="matrix(0.05,0,0,0.05,72.85,0)" xlink:href="#at"/></g><path d="M206 0h-36l-40-164L89 0H53L-1-190h32L70-26l43-164h34l41 164 42-164h31" id="aA"/><g id="M"><use transform="matrix(0.05,0,0,0.05,0,0)" xlink:href="#aA"/><use transform="matrix(0.05,0,0,0.05,12.950000000000001,0)" xlink:href="#ad"/><use transform="matrix(0.05,0,0,0.05,16.900000000000002,0)" xlink:href="#V"/><use transform="matrix(0.05,0,0,0.05,21.900000000000002,0)" xlink:href="#aj"/><use transform="matrix(0.05,0,0,0.05,31.900000000000002,0)" xlink:href="#W"/><use transform="matrix(0.05,0,0,0.05,41.900000000000006,0)" xlink:href="#T"/><use transform="matrix(0.05,0,0,0.05,51.900000000000006,0)" xlink:href="#V"/></g><g id="N"><use transform="matrix(0.05,0,0,0.05,0,0)" xlink:href="#V"/><use transform="matrix(0.05,0,0,0.05,5,0)" xlink:href="#ad"/><use transform="matrix(0.05,0,0,0.05,8.95,0)" xlink:href="#X"/><use transform="matrix(0.05,0,0,0.05,23.9,0)" xlink:href="#Y"/></g><path d="M9 0v-24l116-142H16v-24h144v24L44-24h123V0H9" id="aB"/><g id="O"><use transform="matrix(0.05,0,0,0.05,0,0)" xlink:href="#aB"/><use transform="matrix(0.05,0,0,0.05,9,0)" xlink:href="#W"/><use transform="matrix(0.05,0,0,0.05,19,0)" xlink:href="#af"/><use transform="matrix(0.05,0,0,0.05,29,0)" xlink:href="#Y"/></g><g id="P"><use transform="matrix(0.05,0,0,0.05,0,0)" xlink:href="#S"/><use transform="matrix(0.05,0,0,0.05,9,0)" xlink:href="#ai"/><use transform="matrix(0.05,0,0,0.05,19,0)" xlink:href="#Z"/><use transform="matrix(0.05,0,0,0.05,24.95,0)" xlink:href="#V"/><use transform="matrix(0.05,0,0,0.05,29.950000000000003,0)" xlink:href="#U"/></g><g id="Q"><use transform="matrix(0.05,0,0,0.05,0,0)" xlink:href="#W"/><use transform="matrix(0.05,0,0,0.05,10,0)" xlink:href="#Z"/><use transform="matrix(0.05,0,0,0.05,15.949999999999998,0)" xlink:href="#ae"/><use transform="matrix(0.05,0,0,0.05,25.950000000000003,0)" xlink:href="#Y"/><use transform="matrix(0.05,0,0,0.05,35.95,0)" xlink:href="#Z"/><use transform="matrix(0.05,0,0,0.05,41.900000000000006,0)" xlink:href="#ac"/><use transform="matrix(0.05,0,0,0.05,51.900000000000006,0)" xlink:href="#ad"/><use transform="matrix(0.05,0,0,0.05,55.85,0)" xlink:href="#V"/><use transform="matrix(0.05,0,0,0.05,60.85,0)" xlink:href="#Y"/><use transform="matrix(0.05,0,0,0.05,70.85000000000001,0)" xlink:href="#X"/><use transform="matrix(0.05,0,0,0.05,85.80000000000001,0)" xlink:href="#U"/></g><g id="R"><use transform="matrix(0.05,0,0,0.05,0,0)" xlink:href="#W"/><use transform="matrix(0.05,0,0,0.05,10,0)" xlink:href="#Z"/><use transform="matrix(0.05,0,0,0.05,15.949999999999998,0)" xlink:href="#ae"/><use transform="matrix(0.05,0,0,0.05,25.950000000000003,0)" xlink:href="#Y"/><use transform="matrix(0.05,0,0,0.05,35.95,0)" xlink:href="#Z"/><use transform="matrix(0.05,0,0,0.05,41.900000000000006,0)" xlink:href="#ac"/><use transform="matrix(0.05,0,0,0.05,51.900000000000006,0)" xlink:href="#ad"/><use transform="matrix(0.05,0,0,0.05,55.85,0)" xlink:href="#V"/><use transform="matrix(0.05,0,0,0.05,60.85,0)" xlink:href="#Y"/><use transform="matrix(0.05,0,0,0.05,70.85000000000001,0)" xlink:href="#X"/><use transform="matrix(0.05,0,0,0.05,85.80000000000001,0)" xlink:href="#ac"/><use transform="matrix(0.05,0,0,0.05,95.80000000000001,0)" xlink:href="#ad"/><use transform="matrix(0.05,0,0,0.05,99.75000000000001,0)" xlink:href="#ae"/></g></defs></g></svg>